# xmcd CD database file
#
# Track frame offsets:
#	150
#	16335
#	26722
#	39057
#	59440
#	73070
#	86280
#	97242
#	109875
#	124770
#	139695
#	154500
#	167402
#	182127
#	195545
#	207905
#
# Disc length: 2907 seconds
#
# Revision: 0
# Processed by: cddbd v1.5.2PL0 Copyright (c) Steve Scherf et al.
# Submitted via: Feurio! 1.63 - http://www.feurio.com
#
DISCID=d30b5910
DTITLE=Various Artist - Golden Country Greats ~Vol 3
DYEAR=1993
DGENRE=country
TTITLE0=Billy Joe Spears - Queen Of The Silver Dollar
TTITLE1=Gene Simmons - Way Down Yonder In Baton Rouge
TTITLE2=Ray Price - Rain And Tears
TTITLE3=Gram Parson and Emmylou Harris - Love Hurts
TTITLE4=Tennesee - Run Boy Run
TTITLE5=Kenny Rogers - Ruby Don't Take Your Love To Town
TTITLE6=Dolly Parton - Honky Tonk Angels
TTITLE7=Frankie Laine - High Noon
TTITLE8=Jeannie C. Riley - Harper Valley P.T.A.
TTITLE9=Kingston Trio - Tom Dooley
TTITLE10=Andy Forstmann - My Tennessee Home
TTITLE11=Johnny Cash - Folsom Prison Blues
TTITLE12=Willie Nelson - Will You Remember Mine
TTITLE13=Roy Acuff - Tennessee Waltz
TTITLE14=Hank Willams - Your Chattin' Heart
TTITLE15=Buddy Knox - Devil Woman
EXTD=
EXTT0=
EXTT1=
EXTT2=
EXTT3=
EXTT4=
EXTT5=
EXTT6=
EXTT7=
EXTT8=
EXTT9=
EXTT10=
EXTT11=
EXTT12=
EXTT13=
EXTT14=
EXTT15=
PLAYORDER=
